<?xml version="1.0" ?><svg viewBox="0 0 512 512" xmlns="http://www.w3.org/2000/svg"><title/><g id="Hot_dog"><path d="M498.5,275.65a6.7123,6.7123,0,1,0-6.82-11.51,6.7233,6.7233,0,1,0-12.22-5.01l-.03.12a2.7768,2.7768,0,0,1-4.36,1.64,44.3827,44.3827,0,0,0-20.6954-8.13,61.7808,61.7808,0,0,0-89.6519-46.1011,67.19,67.19,0,0,1-9.3145,4.0937c-14.6221,4.9732-44.1172,11.4-77.3677-1.437-35.1943-13.5874-53.43-42.1806-59.6357-53.8427a54.4873,54.4873,0,0,1-2.9912-6.5533,61.7939,61.7939,0,0,0-97.3294-26.01A44.3705,44.3705,0,0,0,96.87,115.06a2.9368,2.9368,0,0,1-2.3-4.37,6.94,6.94,0,0,0,.92-3.47,6.6695,6.6695,0,0,0-13.26-1.16A6.7184,6.7184,0,1,0,69.43,110a6.7115,6.7115,0,0,0-9.85.1,6.8626,6.8626,0,0,0,2.25,10.67l.78.38a2.9387,2.9387,0,0,1,.63,4.85A44.2907,44.2907,0,0,0,49.4,168.9a229.4779,229.4779,0,0,0,7.7927,21.9984,62.6978,62.6978,0,0,0-15.4368,4.5323,61.7349,61.7349,0,0,0-34.959,72.4365l-.3584.1387,2.3032,6.0454c1.9219,5.0444,12.92,31.8408,40.792,64.11,35.6133,41.2329,84.5327,74.646,141.47,96.628a361.8182,361.8182,0,0,0,129.8774,24.5322,335.5594,335.5594,0,0,0,36.3731-1.9629c39.6343-4.3232,65.5371-14.2988,72.5264-17.251.1748-.0737.7924-.3535,1.2431-.5591l.3418-.1557a61.3954,61.3954,0,0,0,32.8775-35.7774A62.0529,62.0529,0,0,0,453.8613,343.95,217.7775,217.7775,0,0,0,474.47,333.01a44.34,44.34,0,0,0,18.55-41.38,2.7766,2.7766,0,0,1,3.52-3l.36.1a6.8633,6.8633,0,0,0,8.84-6.39A6.7272,6.7272,0,0,0,498.5,275.65ZM157.5732,121.6885a48.1354,48.1354,0,0,1,14.8863,2.3579A48.7314,48.7314,0,0,1,203.2358,153.47a67.4933,67.4933,0,0,0,3.6919,8.1089c6.8911,12.9482,27.1582,44.7021,66.4312,59.8643,37.08,14.3149,69.9443,7.1572,86.2358,1.6167a79.7114,79.7114,0,0,0,11.11-4.8594A48.7832,48.7832,0,0,1,441.27,253.0983a44.1779,44.1779,0,0,0-17.11,6.9317c-.4021.2721-25.89,16.3887-68.533,19.92-2.79-6.9757-8.0692-18.0315-22.5515-23.6225A37.5543,37.5543,0,0,0,319.52,253.73c-9.1424,0-16.0817,3.4653-20.6737,5.7583-.2095.1047-.49.2449-.8027.3988-.1278-.3236-.2414-.6158-.3261-.8338-2.6171-6.7334-7.4889-19.2675-23.2266-25.3427a37.5542,37.5542,0,0,0-13.5564-2.598c-9.1438,0-16.0822,3.4657-20.6736,5.759-.2087.1043-.4887.2441-.8.3976-.1275-.3231-.241-.6149-.3256-.8326-2.6173-6.7338-7.4887-19.267-23.2251-25.3425a37.55,37.55,0,0,0-13.5553-2.598c-9.1429,0-16.0821,3.4664-20.6738,5.76-.2081.1038-.4868.243-.7971.3959-.1268-.3212-.2394-.611-.3236-.8276-2.6167-6.7339-7.4875-19.2684-23.2242-25.3439a20.5361,20.5361,0,0,0-2.3655-.7335c-13.1275-19.2462-18.0753-34.846-19.04-38.1768-.1-.35-.19-.7-.24-.89a44.1437,44.1437,0,0,0-8.1049-16.7556A49.35,49.35,0,0,1,157.5732,121.6885ZM391.2375,300.6768a7.4265,7.4265,0,0,1-9.6015,4.2528c-4.0845-1.577-6.698-.4322-11.7577,2.0947-3.8965,1.9454-8.7884,4.3882-14.8652,4.3882a24.4127,24.4127,0,0,1-8.876-1.7259c-10.3823-4.0082-13.51-12.0517-15.7929-17.9254-2.0493-5.271-3.2154-7.8752-7.3-9.4517s-6.6956-.4318-11.7552,2.0952c-5.6374,2.8161-13.3565,6.6743-23.74,2.6637-10.3817-4.0082-13.5086-12.052-15.7915-17.9248-2.0487-5.271-3.2148-7.8748-7.2979-9.4513-4.0812-1.575-6.6952-.4312-11.7548,2.0952-5.6374,2.8156-13.3564,6.6734-23.7393,2.6638s-13.5077-12.0516-15.79-17.9249c-2.0488-5.271-3.2143-7.8742-7.297-9.4508s-6.6946-.4307-11.7524,2.0957c-5.6369,2.8161-13.3569,6.6734-23.7382,2.6648S156.8818,229.7849,154.6,223.9116c-2.0479-5.27-3.2135-7.8738-7.2946-9.4493a7.4255,7.4255,0,1,1,5.3487-13.8543c10.3809,4.0077,13.5068,12.0516,15.7891,17.9249,2.0478,5.27,3.2129,7.8733,7.2941,9.4488,4.0793,1.5741,6.6933.4307,11.7524-2.0957,5.6374-2.8161,13.3564-6.6729,23.7383-2.6647s13.5077,12.0516,15.7905,17.9249c2.0488,5.2709,3.2144,7.8742,7.297,9.4507,4.0836,1.575,6.6951.4312,11.7548-2.0957,5.6369-2.8155,13.357-6.6714,23.7392-2.6632s13.5087,12.0516,15.7915,17.9249c2.0489,5.2709,3.2149,7.8747,7.2981,9.4512s6.6956.4317,11.7547-2.0953c5.6384-2.8155,13.3588-6.6714,23.74-2.6637s13.51,12.0517,15.793,17.9254c2.0493,5.2709,3.2153,7.8752,7.2994,9.4517s6.6971.4317,11.7572-2.0947c5.6374-2.8151,13.3584-6.6705,23.7416-2.6623A7.4253,7.4253,0,0,1,391.2375,300.6768Zm60.7508,98.6005a48.5071,48.5071,0,0,1-25.9746,28.2681l-.3892.1773c-.32.146-.7485.3422-.8965.4067-6.583,2.78-31.0058,12.1738-68.8833,16.3057-52.9253,5.7719-108.3086-1.7564-160.1592-21.774-54.9536-21.2158-102.09-53.3735-136.3139-92.997-23.4248-27.1211-34.1411-49.7784-37.5254-57.8609l-.9131-2.3965a48.8874,48.8874,0,0,1,90.3633-37.2461,118.7359,118.7359,0,0,0,10.812,19.6675c13.42,19.3247,45.3882,55.3941,108.7075,79.8394,36.4112,14.0571,73.4854,19.5171,110.1851,16.2275a206.7927,206.7927,0,0,0,30.97-5.0986,105.9663,105.9663,0,0,0,15.18-4.9531,48.5265,48.5265,0,0,1,38.3735.3789A49.0147,49.0147,0,0,1,451.9883,399.2773Z"/></g></svg>